<?xml version="1.0" encoding="UTF-8" standalone="no"?>
<!DOCTYPE svg PUBLIC "-//W3C//DTD SVG 1.1//EN" "http://www.w3.org/Graphics/SVG/1.1/DTD/svg11.dtd">
<svg width="100%" height="100%" viewBox="0 0 249 116" version="1.1" xmlns="http://www.w3.org/2000/svg" xmlns:xlink="http://www.w3.org/1999/xlink" xml:space="preserve" xmlns:serif="http://www.serif.com/" style="fill-rule:evenodd;clip-rule:evenodd;stroke-linejoin:bevel;stroke-miterlimit:2;">
    <g transform="matrix(1,0,0,1,-323,-7)">
        <g id="logo" transform="matrix(0.248592,0,0,0.114677,323.208,7.99219)">
            <rect x="0" y="0" width="1000" height="1000" style="fill:none;"/>
            <g id="logo1" serif:id="logo" transform="matrix(0.682638,0,0,1.47979,-155.332,-307.464)">
                <g id="wines" transform="matrix(1,0,0,1,-28.2088,0)">
                    <g id="wines--s" serif:id="wines -s" transform="matrix(320.261,-23.0441,23.0441,320.261,1328.95,811.847)">
                        <path d="M0.036,-0.233L0.177,-0.247C0.185,-0.199 0.202,-0.165 0.228,-0.143C0.254,-0.12 0.289,-0.109 0.333,-0.109C0.38,-0.109 0.415,-0.119 0.438,-0.139C0.462,-0.159 0.474,-0.182 0.474,-0.208C0.474,-0.225 0.469,-0.239 0.459,-0.251C0.449,-0.263 0.431,-0.273 0.407,-0.282C0.39,-0.288 0.351,-0.299 0.291,-0.313C0.214,-0.333 0.159,-0.356 0.128,-0.384C0.084,-0.424 0.062,-0.472 0.062,-0.528C0.062,-0.565 0.072,-0.599 0.093,-0.631C0.114,-0.662 0.143,-0.687 0.182,-0.703C0.221,-0.72 0.268,-0.728 0.323,-0.728C0.413,-0.728 0.481,-0.708 0.526,-0.669C0.572,-0.63 0.595,-0.577 0.598,-0.511L0.453,-0.505C0.447,-0.542 0.434,-0.568 0.413,-0.584C0.393,-0.6 0.362,-0.608 0.322,-0.608C0.28,-0.608 0.247,-0.6 0.223,-0.583C0.208,-0.571 0.2,-0.557 0.2,-0.538C0.2,-0.521 0.207,-0.507 0.222,-0.495C0.24,-0.479 0.284,-0.463 0.354,-0.447C0.425,-0.43 0.477,-0.413 0.51,-0.395C0.544,-0.378 0.571,-0.353 0.59,-0.323C0.609,-0.292 0.618,-0.254 0.618,-0.208C0.618,-0.167 0.607,-0.129 0.584,-0.093C0.561,-0.057 0.529,-0.031 0.487,-0.013C0.446,0.004 0.394,0.013 0.332,0.013C0.241,0.013 0.172,-0.008 0.123,-0.05C0.075,-0.092 0.046,-0.153 0.036,-0.233Z" style="fill:rgb(122,129,255);fill-rule:nonzero;stroke:rgb(122,129,255);stroke-width:0.04px;"/>
                    </g>
                    <g id="wines--e" serif:id="wines -e" transform="matrix(320.25,23.2045,-23.2045,320.25,1091.22,785.224)">
                        <path d="M0.073,0L0.073,-0.716L0.604,-0.716L0.604,-0.595L0.217,-0.595L0.217,-0.436L0.577,-0.436L0.577,-0.315L0.217,-0.315L0.217,-0.121L0.617,-0.121L0.617,0L0.073,0Z" style="fill:rgb(122,129,255);fill-rule:nonzero;stroke:rgb(122,129,255);stroke-width:0.04px;"/>
                    </g>
                    <g id="wines--n" serif:id="wines -n" transform="matrix(320.099,-25.2002,25.2002,320.099,876.704,802.985)">
                        <path d="M0.074,0L0.074,-0.716L0.215,-0.716L0.508,-0.238L0.508,-0.716L0.642,-0.716L0.642,0L0.497,0L0.208,-0.467L0.208,0L0.074,0Z" style="fill:rgb(122,129,255);fill-rule:nonzero;stroke:rgb(122,129,255);stroke-width:0.04px;"/>
                    </g>
                    <g id="wines--i" serif:id="wines -i" transform="matrix(319.845,28.2356,-28.2356,319.845,755.63,789.898)">
                        <rect x="0.068" y="-0.716" width="0.145" height="0.716" style="fill:rgb(122,129,255);fill-rule:nonzero;stroke:rgb(122,129,255);stroke-width:0.04px;"/>
                    </g>
                    <g id="wines--w" serif:id="wines -w" transform="matrix(319.425,-32.6457,32.6457,319.425,476.393,822.308)">
                        <path d="M0.174,0L0.003,-0.716L0.151,-0.716L0.259,-0.224L0.39,-0.716L0.562,-0.716L0.688,-0.216L0.797,-0.716L0.943,-0.716L0.769,0L0.616,0L0.473,-0.535L0.331,0L0.174,0Z" style="fill:rgb(122,129,255);fill-rule:nonzero;stroke:rgb(122,129,255);stroke-width:0.04px;"/>
                    </g>
                </g>
                <g id="chosen" transform="matrix(1,0,0,1,-49.7985,27.3516)">
                    <g id="chosen--n" serif:id="chosen -n" transform="matrix(318.099,43.7183,-43.7183,318.099,1451.82,478.559)">
                        <path d="M0.074,0L0.074,-0.716L0.215,-0.716L0.508,-0.238L0.508,-0.716L0.642,-0.716L0.642,0L0.497,0L0.208,-0.467L0.208,0L0.074,0Z" style="fill:rgb(255,126,121);fill-rule:nonzero;stroke:rgb(255,126,121);stroke-width:0.04px;"/>
                    </g>
                    <g id="chosen--e" serif:id="chosen -e" transform="matrix(320.797,-13.6974,13.6974,320.797,1247.81,485.25)">
                        <path d="M0.073,0L0.073,-0.716L0.604,-0.716L0.604,-0.595L0.217,-0.595L0.217,-0.436L0.577,-0.436L0.577,-0.315L0.217,-0.315L0.217,-0.121L0.617,-0.121L0.617,0L0.073,0Z" style="fill:rgb(255,126,121);fill-rule:nonzero;stroke:rgb(255,126,121);stroke-width:0.04px;"/>
                    </g>
                    <g id="chosen--s" serif:id="chosen -s" transform="matrix(320.552,18.5654,-18.5654,320.552,1022.53,478.995)">
                        <path d="M0.036,-0.233L0.177,-0.247C0.185,-0.199 0.202,-0.165 0.228,-0.143C0.254,-0.12 0.289,-0.109 0.333,-0.109C0.38,-0.109 0.415,-0.119 0.438,-0.139C0.462,-0.159 0.474,-0.182 0.474,-0.208C0.474,-0.225 0.469,-0.239 0.459,-0.251C0.449,-0.263 0.431,-0.273 0.407,-0.282C0.39,-0.288 0.351,-0.299 0.291,-0.313C0.214,-0.333 0.159,-0.356 0.128,-0.384C0.084,-0.424 0.062,-0.472 0.062,-0.528C0.062,-0.565 0.072,-0.599 0.093,-0.631C0.114,-0.662 0.143,-0.687 0.182,-0.703C0.221,-0.72 0.268,-0.728 0.323,-0.728C0.413,-0.728 0.481,-0.708 0.526,-0.669C0.572,-0.63 0.595,-0.577 0.598,-0.511L0.453,-0.505C0.447,-0.542 0.434,-0.568 0.413,-0.584C0.393,-0.6 0.362,-0.608 0.322,-0.608C0.28,-0.608 0.247,-0.6 0.223,-0.583C0.208,-0.571 0.2,-0.557 0.2,-0.538C0.2,-0.521 0.207,-0.507 0.222,-0.495C0.24,-0.479 0.284,-0.463 0.354,-0.447C0.425,-0.43 0.477,-0.413 0.51,-0.395C0.544,-0.378 0.571,-0.353 0.59,-0.323C0.609,-0.292 0.618,-0.254 0.618,-0.208C0.618,-0.167 0.607,-0.129 0.584,-0.093C0.561,-0.057 0.529,-0.031 0.487,-0.013C0.446,0.004 0.394,0.013 0.332,0.013C0.241,0.013 0.172,-0.008 0.123,-0.05C0.075,-0.092 0.046,-0.153 0.036,-0.233Z" style="fill:rgb(255,126,121);fill-rule:nonzero;stroke:rgb(255,126,121);stroke-width:0.04px;"/>
                    </g>
                    <g id="chosen--o" serif:id="chosen -o" transform="matrix(318.895,-37.4719,37.4719,318.895,796.727,509.128)">
                        <path d="M0.043,-0.354C0.043,-0.426 0.054,-0.488 0.076,-0.537C0.092,-0.574 0.115,-0.606 0.143,-0.635C0.171,-0.664 0.202,-0.686 0.235,-0.7C0.28,-0.719 0.331,-0.728 0.39,-0.728C0.495,-0.728 0.58,-0.695 0.643,-0.63C0.706,-0.564 0.738,-0.473 0.738,-0.357C0.738,-0.241 0.706,-0.151 0.644,-0.086C0.581,-0.02 0.497,0.012 0.392,0.012C0.285,0.012 0.201,-0.02 0.138,-0.085C0.075,-0.15 0.043,-0.24 0.043,-0.354ZM0.192,-0.358C0.192,-0.277 0.211,-0.216 0.249,-0.174C0.286,-0.132 0.333,-0.111 0.391,-0.111C0.449,-0.111 0.496,-0.132 0.533,-0.174C0.57,-0.215 0.588,-0.277 0.588,-0.36C0.588,-0.442 0.57,-0.504 0.534,-0.544C0.498,-0.584 0.451,-0.604 0.391,-0.604C0.332,-0.604 0.284,-0.584 0.247,-0.543C0.211,-0.502 0.192,-0.441 0.192,-0.358Z" style="fill:rgb(255,126,121);fill-rule:nonzero;stroke:rgb(255,126,121);stroke-width:0.04px;"/>
                    </g>
                    <g id="chosen--h" serif:id="chosen -h" transform="matrix(319.271,34.1225,-34.1225,319.271,542.098,477.388)">
                        <path d="M0.073,0L0.073,-0.716L0.218,-0.716L0.218,-0.434L0.501,-0.434L0.501,-0.716L0.646,-0.716L0.646,0L0.501,0L0.501,-0.313L0.218,-0.313L0.218,0L0.073,0Z" style="fill:rgb(255,126,121);fill-rule:nonzero;stroke:rgb(255,126,121);stroke-width:0.04px;"/>
                    </g>
                    <g id="chosen--c" serif:id="chosen -c" transform="matrix(317.891,-45.2061,45.2061,317.891,335.053,524.405)">
                        <path d="M0.531,-0.263L0.671,-0.219C0.649,-0.141 0.614,-0.083 0.564,-0.045C0.514,-0.007 0.45,0.012 0.374,0.012C0.278,0.012 0.2,-0.02 0.139,-0.085C0.078,-0.15 0.047,-0.239 0.047,-0.352C0.047,-0.471 0.078,-0.563 0.14,-0.629C0.201,-0.695 0.282,-0.728 0.382,-0.728C0.47,-0.728 0.541,-0.702 0.596,-0.65C0.628,-0.62 0.653,-0.576 0.669,-0.519L0.526,-0.484C0.517,-0.521 0.5,-0.551 0.473,-0.572C0.446,-0.594 0.413,-0.604 0.375,-0.604C0.322,-0.604 0.279,-0.585 0.246,-0.547C0.213,-0.509 0.196,-0.448 0.196,-0.362C0.196,-0.272 0.213,-0.207 0.245,-0.169C0.278,-0.131 0.32,-0.111 0.372,-0.111C0.41,-0.111 0.444,-0.124 0.471,-0.148C0.499,-0.172 0.519,-0.211 0.531,-0.263Z" style="fill:rgb(255,126,121);fill-rule:nonzero;stroke:rgb(255,126,121);stroke-width:0.04px;"/>
                    </g>
                </g>
            </g>
        </g>
    </g>
</svg>
